<?xml version="1.0" encoding="utf-8"?>
<!-- Generator: Adobe Illustrator 19.0.0, SVG Export Plug-In . SVG Version: 6.00 Build 0)  -->
<svg version="1.1" id="Calque_1" xmlns="http://www.w3.org/2000/svg" xmlns:xlink="http://www.w3.org/1999/xlink" x="0px" y="0px"
	 viewBox="-74 -68 810 696" style="enable-background:new -74 -68 810 696;" xml:space="preserve">
<path id="XMLID_73_" style="fill:#E4C1F9;" d="M496.1,239.7C473.5,71.6,521.8,37,521.8,37s-29.5,131.2,6,202.7"/>
<path id="XMLID_72_" style="fill:none;stroke:#000000;stroke-miterlimit:10;" d="M491,234.4C468.5,66.2,516.8,31.6,516.8,31.6
	s-29.5,131.2,6,202.7"/>
<path id="XMLID_75_" style="fill:none;stroke:#000000;stroke-miterlimit:10;" d="M503.9,200.5c-3.8-20-15.6-107.6,12.6-168.6"/>
<path id="XMLID_71_" style="fill:#FFFFFF;" d="M477.9,240c-7.3-124.3-57.1-144-57.1-144s79.4,10.1,82.2,137.7"/>
<path id="XMLID_70_" style="fill:none;stroke:#000000;stroke-miterlimit:10;" d="M479.2,235.3c0,0,18.2-109.2-58.4-145"/>
<g id="XMLID_28_">
	<path id="XMLID_69_" style="fill:#FCF6BD;stroke:#000000;stroke-miterlimit:10;" d="M468.5,270.1c26.1-71.3-55.3-123.3-55.3-123.3
		s100.8,38.9,72,114.1"/>
	<path id="XMLID_68_" style="fill:none;stroke:#000000;stroke-miterlimit:10;" d="M480.9,271.3c0,0,27.9-71.5-67.8-124.4"/>
</g>
<path id="XMLID_74_" style="fill:none;stroke:#000000;stroke-miterlimit:10;" d="M469.5,212.9C463.3,106.8,420.8,90,420.8,90
	s72.8,12,75.2,120.9"/>
<path id="XMLID_76_" style="fill:#FCF6BD;" d="M732.6,228.9C693.3,178.3,630.8,147,562,150.3c-88.3,4.3-160.6,64.2-184.8,144.2
	c-15.9-9.8-34.8-15.1-54.9-14.1c-28.5,1.4-53.4,15.1-70,35.6C219,300.9,182,293.3,143,295.2c-94,4.6-173,63.2-207,144.3V529h796.8
	L732.6,228.9z"/>
<path id="XMLID_142_" style="fill:none;stroke:#000000;stroke-miterlimit:10;" d="M728.7,233.3c-39.3-50.5-101.7-81.8-170.5-78.5
	c-88.3,4.3-160.6,64.2-184.8,144.2c-15.9-9.8-34.8-15.1-54.9-14.1c-28.5,1.4-53.4,15.1-70,35.7c-33.3-15.1-70.7-22.7-109.8-20.8
	c-94,4.6-172.8,63.2-207.4,144.3"/>
</svg>
