<?xml version="1.0" encoding="utf-8"?>
<!-- Generator: Adobe Illustrator 19.0.0, SVG Export Plug-In . SVG Version: 6.00 Build 0)  -->
<svg version="1.1" id="Calque_1" xmlns="http://www.w3.org/2000/svg" xmlns:xlink="http://www.w3.org/1999/xlink" x="0px" y="0px"
	 viewBox="-144 374 880 188" style="enable-background:new -144 374 880 188;" xml:space="preserve">
<g>
	<g>
		<path style="fill:#FFFFFF;" d="M-35.5,527.5h685c40.9,0,74-33.1,74-74v0c0-40.9-33.1-74-74-74h-685c-40.9,0-74,33.1-74,74v0
			C-109.5,494.4-76.4,527.5-35.5,527.5z"/>
		<path style="fill:#FF8E4E;stroke:#000000;stroke-miterlimit:10;" d="M-59.5,551.5h685c40.9,0,74-33.1,74-74v0
			c0-40.9-33.1-74-74-74h-685c-40.9,0-74,33.1-74,74v0C-133.5,518.4-100.4,551.5-59.5,551.5z"/>
	</g>
	<g>
		<circle cx="628" cy="523" r="2"/>
		<circle cx="584" cy="523" r="2"/>
		<circle cx="540" cy="523" r="2"/>
		<circle cx="496" cy="523" r="2"/>
		<circle cx="452" cy="523" r="2"/>
		<circle cx="643" cy="492" r="2"/>
		<circle cx="599" cy="492" r="2"/>
		<circle cx="555" cy="492" r="2"/>
		<circle cx="511" cy="492" r="2"/>
		<circle cx="467" cy="492" r="2"/>
		<circle cx="423" cy="492" r="2"/>
	</g>
</g>
</svg>
