<?xml version="1.0" encoding="utf-8"?>
<!-- Generator: Adobe Illustrator 19.0.0, SVG Export Plug-In . SVG Version: 6.00 Build 0)  -->
<svg version="1.1" xmlns="http://www.w3.org/2000/svg" xmlns:xlink="http://www.w3.org/1999/xlink" x="0px" y="0px"
	 viewBox="0 0 1242.1 911.8" style="enable-background:new 0 0 1242.1 911.8;" xml:space="preserve">
<g id="Calque_1">
</g>
<g id="Calque_2">
	<path id="XMLID_149_" style="fill:#A9DEF9;" d="M1060.3,268.9C1044.7,127.1,924.5,16.7,778.5,16.7c-98.5,0-185.2,50.2-236,126.4
		c-11.2-2.3-22.7-3.4-34.5-3.4c-69.7,0-129.6,42.2-155.9,102.2h-48.6C143.6,242,14.1,371.5,14.1,531.3v0.1
		C14.1,691.3,143.6,821,303.5,821h297.9c30.2,47,83.2,79,143.6,79s113.5-32,143.6-79h49c159.9,0,289.5-129.8,289.5-289.7v-0.1
		C1227.1,415.3,1158.9,315.1,1060.3,268.9z"/>
</g>
</svg>
