<?xml version="1.0" encoding="utf-8"?>
<!-- Generator: Adobe Illustrator 19.0.0, SVG Export Plug-In . SVG Version: 6.00 Build 0)  -->
<svg version="1.1" id="Calque_1" xmlns="http://www.w3.org/2000/svg" xmlns:xlink="http://www.w3.org/1999/xlink" x="0px" y="0px"
	 viewBox="-74 -68 810 696" style="enable-background:new -74 -68 810 696;" xml:space="preserve">
<g>
	<g>
		<circle cx="611" cy="620" r="2"/>
		<circle cx="567" cy="620" r="2"/>
		<circle cx="523" cy="620" r="2"/>
		<circle cx="479" cy="620" r="2"/>
		<circle cx="435" cy="620" r="2"/>
		<circle cx="391" cy="620" r="2"/>
		<circle cx="347" cy="620" r="2"/>
		<circle cx="303" cy="620" r="2"/>
		<circle cx="259" cy="620" r="2"/>
		<circle cx="611" cy="560" r="2"/>
		<circle cx="567" cy="560" r="2"/>
		<circle cx="523" cy="560" r="2"/>
		<circle cx="479" cy="560" r="2"/>
		<circle cx="435" cy="560" r="2"/>
		<circle cx="391" cy="560" r="2"/>
		<circle cx="347" cy="560" r="2"/>
		<circle cx="303" cy="560" r="2"/>
		<circle cx="259" cy="560" r="2"/>
		<circle cx="633" cy="531" r="2"/>
		<circle cx="589" cy="531" r="2"/>
		<circle cx="545" cy="531" r="2"/>
		<circle cx="501" cy="531" r="2"/>
		<circle cx="457" cy="531" r="2"/>
		<circle cx="413" cy="531" r="2"/>
		<circle cx="369" cy="531" r="2"/>
		<circle cx="325" cy="531" r="2"/>
		<circle cx="281" cy="531" r="2"/>
		<circle cx="604" cy="500" r="2"/>
		<circle cx="560" cy="500" r="2"/>
		<circle cx="516" cy="500" r="2"/>
		<circle cx="472" cy="500" r="2"/>
		<circle cx="428" cy="500" r="2"/>
		<circle cx="384" cy="500" r="2"/>
		<circle cx="340" cy="500" r="2"/>
		<circle cx="296" cy="500" r="2"/>
		<circle cx="252" cy="500" r="2"/>
		<circle cx="633" cy="590" r="2"/>
		<circle cx="589" cy="590" r="2"/>
		<circle cx="545" cy="590" r="2"/>
		<circle cx="501" cy="590" r="2"/>
		<circle cx="457" cy="590" r="2"/>
		<circle cx="413" cy="590" r="2"/>
		<circle cx="369" cy="590" r="2"/>
		<circle cx="325" cy="590" r="2"/>
		<circle cx="281" cy="590" r="2"/>
	</g>
	<path style="fill:#D0F4CE;" d="M550.7,289.2c-0.5-0.5-0.8-0.8-1.4-1.4c-0.5-78-30.4-155.7-89.5-215.4
		c-120.4-121.5-318.5-121.5-439,0c-59.5,60-89.3,138.4-89.5,216.8h-0.8V478c0,66.4,53.9,120.3,120.3,120.3h167.7h0.1
		c14.5,1,29,1,43.5,0h0.1h286.5l0,0c0.3,0,0.5,0,0.8,0c85.3,0,154.5-69.2,154.5-154.5C703.9,358.8,635.4,289.9,550.7,289.2z"/>
	<path style="fill:none;stroke:#000000;stroke-miterlimit:10;" d="M576.8,246.2c-0.5-0.5-0.8-0.8-1.4-1.4
		c-0.5-78-30.4-155.7-89.5-215.4c-120.4-121.5-318.5-121.5-439,0c-59.5,60-89.3,138.4-89.5,216.8h-0.8V435
		c0,66.4,53.9,120.3,120.3,120.3h167.7h0.1c14.5,1,29,1,43.5,0h0.1h286.5l0,0c0.3,0,0.5,0,0.8,0c85.3,0,154.5-69.2,154.5-154.5
		C730,315.8,661.5,246.9,576.8,246.2z"/>
	<g>
		<circle cx="346" cy="357" r="2"/>
		<circle cx="302" cy="357" r="2"/>
		<circle cx="361" cy="326" r="2"/>
		<circle cx="317" cy="326" r="2"/>
		<circle cx="273" cy="326" r="2"/>
	</g>
	<g>
		<circle cx="587" cy="419" r="2"/>
		<circle cx="543" cy="419" r="2"/>
		<circle cx="499" cy="419" r="2"/>
		<circle cx="455" cy="419" r="2"/>
		<circle cx="411" cy="419" r="2"/>
		<circle cx="631" cy="359" r="2"/>
		<circle cx="587" cy="359" r="2"/>
		<circle cx="543" cy="359" r="2"/>
		<circle cx="499" cy="359" r="2"/>
		<circle cx="455" cy="359" r="2"/>
		<circle cx="609" cy="330" r="2"/>
		<circle cx="565" cy="330" r="2"/>
		<circle cx="521" cy="330" r="2"/>
		<circle cx="477" cy="330" r="2"/>
		<circle cx="433" cy="330" r="2"/>
		<circle cx="580" cy="299" r="2"/>
		<circle cx="536" cy="299" r="2"/>
		<circle cx="448" cy="299" r="2"/>
		<circle cx="609" cy="389" r="2"/>
		<circle cx="565" cy="389" r="2"/>
		<circle cx="521" cy="389" r="2"/>
		<circle cx="477" cy="389" r="2"/>
		<circle cx="433" cy="389" r="2"/>
	</g>
	<g>
		<circle cx="438" cy="182" r="2"/>
		<circle cx="394" cy="182" r="2"/>
		<circle cx="350" cy="182" r="2"/>
		<circle cx="306" cy="182" r="2"/>
		<circle cx="262" cy="182" r="2"/>
		<circle cx="482" cy="122" r="2"/>
		<circle cx="438" cy="122" r="2"/>
		<circle cx="394" cy="122" r="2"/>
		<circle cx="350" cy="122" r="2"/>
		<circle cx="306" cy="122" r="2"/>
		<circle cx="460" cy="93" r="2"/>
		<circle cx="416" cy="93" r="2"/>
		<circle cx="372" cy="93" r="2"/>
		<circle cx="328" cy="93" r="2"/>
		<circle cx="284" cy="93" r="2"/>
		<circle cx="431" cy="62" r="2"/>
		<circle cx="387" cy="62" r="2"/>
		<circle cx="299" cy="62" r="2"/>
		<circle cx="460" cy="152" r="2"/>
		<circle cx="416" cy="152" r="2"/>
		<circle cx="372" cy="152" r="2"/>
		<circle cx="328" cy="152" r="2"/>
		<circle cx="284" cy="152" r="2"/>
		<circle cx="240" cy="152" r="2"/>
	</g>
</g>
</svg>
