<?xml version="1.0" encoding="utf-8"?>
<!-- Generator: Adobe Illustrator 19.0.0, SVG Export Plug-In . SVG Version: 6.00 Build 0)  -->
<svg version="1.1" xmlns="http://www.w3.org/2000/svg" xmlns:xlink="http://www.w3.org/1999/xlink" x="0px" y="0px"
	 viewBox="0 0 1001 849" style="enable-background:new 0 0 1001 849;" xml:space="preserve">
<g id="Calque_1">
</g>
<g id="Calque_2">
	<path style="fill:#FFFFFF;" d="M993.5,403.2c0-185.8-150.6-336.4-336.4-336.4H33.9v336.4c0,121.7,98.6,220.3,220.3,220.3
		c0,121.7,98.6,220.3,220.3,220.3c79.1,0,148.4-41.6,187.2-104.2C845.4,737,993.5,587.4,993.5,403.2z"/>
	<path style="fill:none;stroke:#000000;stroke-miterlimit:10;" d="M967,344.1C967,158.3,816.4,7.7,630.5,7.7H7.4v336.4
		c0,121.7,98.6,220.3,220.3,220.3c0,121.7,98.6,220.3,220.3,220.3c79.1,0,148.4-41.6,187.2-104.2C818.9,678,967,528.4,967,344.1z"/>
</g>
</svg>
