<?xml version="1.0" encoding="utf-8"?>
<!-- Generator: Adobe Illustrator 19.0.0, SVG Export Plug-In . SVG Version: 6.00 Build 0)  -->
<svg version="1.1" id="Calque_1" xmlns="http://www.w3.org/2000/svg" xmlns:xlink="http://www.w3.org/1999/xlink" x="0px" y="0px"
	 viewBox="0 0 815 674" style="enable-background:new 0 0 815 674;" xml:space="preserve">
<style type="text/css">
	.st0{fill:#E4C1F9;}
	.st1{fill:none;stroke:#000000;stroke-width:1;stroke-miterlimit:10;}
</style>
<path id="XMLID_28_" class="st0" d="M159.3,355.3c0.5,0.5,0.8,0.8,1.4,1.4c0.5,79.3,30.9,158.4,91,219.1
	c122.5,123.6,323.9,123.6,446.4,0c60.5-61,90.9-140.7,91-220.4h0.8V163.4c0-67.6-54.8-122.3-122.3-122.3H497.1c0,0-0.1,0-0.1,0
	c-14.7-1-29.5-1-44.2,0c0,0-0.1,0-0.1,0H161.4v0c-0.3,0-0.5,0-0.8,0C73.8,41.1,3.5,111.4,3.5,198.2
	C3.5,284.5,73.1,354.6,159.3,355.3z"/>
<path id="XMLID_27_" class="st1" d="M180.9,319.5c0.5,0.5,0.8,0.8,1.4,1.4c0.5,79.3,30.9,158.4,91,219.1
	c122.5,123.6,323.9,123.6,446.4,0c60.5-61,90.9-140.7,91-220.4h0.8V127.6C811.6,60,756.8,5.3,689.3,5.3H518.7c0,0-0.1,0-0.1,0
	c-14.7-1-29.5-1-44.2,0c0,0-0.1,0-0.1,0H183.1v0c-0.3,0-0.5,0-0.8,0C95.5,5.3,25.2,75.6,25.2,162.4
	C25.2,248.7,94.8,318.8,180.9,319.5z"/>
</svg>
