<?xml version="1.0" encoding="utf-8"?>
<!-- Generator: Adobe Illustrator 19.0.0, SVG Export Plug-In . SVG Version: 6.00 Build 0)  -->
<svg version="1.1" xmlns="http://www.w3.org/2000/svg" xmlns:xlink="http://www.w3.org/1999/xlink" x="0px" y="0px"
	 viewBox="0 0 421 149" style="enable-background:new 0 0 421 149;" xml:space="preserve">
<g id="Calque_1">
</g>
<g id="Calque_2">
	<g>
		<circle cx="379" cy="135" r="2"/>
		<circle cx="335" cy="135" r="2"/>
		<circle cx="291" cy="135" r="2"/>
		<circle cx="247" cy="135" r="2"/>
		<circle cx="203" cy="135" r="2"/>
		<circle cx="159" cy="135" r="2"/>
		<circle cx="115" cy="135" r="2"/>
		<circle cx="71" cy="135" r="2"/>
		<circle cx="27" cy="135" r="2"/>
		<circle cx="379" cy="75" r="2"/>
		<circle cx="335" cy="75" r="2"/>
		<circle cx="291" cy="75" r="2"/>
		<circle cx="247" cy="75" r="2"/>
		<circle cx="203" cy="75" r="2"/>
		<circle cx="159" cy="75" r="2"/>
		<circle cx="115" cy="75" r="2"/>
		<circle cx="71" cy="75" r="2"/>
		<circle cx="27" cy="75" r="2"/>
		<circle cx="401" cy="46" r="2"/>
		<circle cx="357" cy="46" r="2"/>
		<circle cx="313" cy="46" r="2"/>
		<circle cx="269" cy="46" r="2"/>
		<circle cx="225" cy="46" r="2"/>
		<circle cx="181" cy="46" r="2"/>
		<circle cx="137" cy="46" r="2"/>
		<circle cx="93" cy="46" r="2"/>
		<circle cx="49" cy="46" r="2"/>
		<circle cx="372" cy="15" r="2"/>
		<circle cx="328" cy="15" r="2"/>
		<circle cx="284" cy="15" r="2"/>
		<circle cx="240" cy="15" r="2"/>
		<circle cx="196" cy="15" r="2"/>
		<circle cx="152" cy="15" r="2"/>
		<circle cx="108" cy="15" r="2"/>
		<circle cx="64" cy="15" r="2"/>
		<circle cx="20" cy="15" r="2"/>
		<circle cx="401" cy="105" r="2"/>
		<circle cx="357" cy="105" r="2"/>
		<circle cx="313" cy="105" r="2"/>
		<circle cx="269" cy="105" r="2"/>
		<circle cx="225" cy="105" r="2"/>
		<circle cx="181" cy="105" r="2"/>
		<circle cx="137" cy="105" r="2"/>
		<circle cx="93" cy="105" r="2"/>
		<circle cx="49" cy="105" r="2"/>
	</g>
</g>
</svg>
