<?xml version="1.0" encoding="utf-8"?>
<!-- Generator: Adobe Illustrator 19.0.0, SVG Export Plug-In . SVG Version: 6.00 Build 0)  -->
<svg version="1.1" xmlns="http://www.w3.org/2000/svg" xmlns:xlink="http://www.w3.org/1999/xlink" x="0px" y="0px"
	 viewBox="0 0 589 740.2" style="enable-background:new 0 0 589 740.2;" xml:space="preserve">
<g id="Calque_1">
</g>
<g id="Calque_2">
	<g id="XMLID_12_">
		<path id="XMLID_26_" style="fill:none;stroke:#000000;stroke-miterlimit:10;" d="M3,537.7c0,0,183.5-189.6,454.9-52.7"/>
		<path id="XMLID_13_" style="fill:none;stroke:#000000;stroke-miterlimit:10;" d="M56.4,556.3C196.4,397.4,457.9,485,457.9,485
			S248.2,307.2,75.4,452.5"/>
	</g>
	<g id="XMLID_9_">
		<path id="XMLID_11_" style="fill:none;stroke:#000000;stroke-miterlimit:10;" d="M83.7,517.9c0,0-32.7-269.6,312.5-509.1"/>
		<path id="XMLID_10_" style="fill:none;stroke:#000000;stroke-miterlimit:10;" d="M137.4,484.7C97.1,257.7,396.2,8.8,396.2,8.8
			S48,161.2,23,492.2"/>
	</g>
	<g id="XMLID_6_">
		<path id="XMLID_8_" style="fill:none;stroke:#000000;stroke-miterlimit:10;" d="M57,681.2c0,0,102.1-132.6,298.8-138.4"/>
		<path id="XMLID_7_" style="fill:none;stroke:#000000;stroke-miterlimit:10;" d="M61,725.2c75.7-121.9,294.8-182.4,294.8-182.4
			S169,502.2,38,654.2"/>
	</g>
	<g id="XMLID_3_">
		<path id="XMLID_5_" style="fill:#FCF6BD;stroke:#000000;stroke-width:2;stroke-miterlimit:10;" d="M61,725.2
			c63-340,525.9-520.9,525.9-520.9S45,288.2,3,545.2"/>
		<path id="XMLID_4_" style="fill:none;stroke:#000000;stroke-width:2;stroke-miterlimit:10;" d="M29,648.2
			c0,0,15.7-301.9,557.9-443.9"/>
	</g>
</g>
</svg>
