<?xml version="1.0" encoding="utf-8"?>
<!-- Generator: Adobe Illustrator 19.0.0, SVG Export Plug-In . SVG Version: 6.00 Build 0)  -->
<svg version="1.1" xmlns="http://www.w3.org/2000/svg" xmlns:xlink="http://www.w3.org/1999/xlink" x="0px" y="0px"
	 viewBox="0 0 582.1 714.1" style="enable-background:new 0 0 582.1 714.1;" xml:space="preserve">
<g id="Calque_1">
</g>
<g id="Calque_2">
	<path id="XMLID_13_" style="fill:#FF8E4E;" d="M451.6,665.7c-59-235.5-364.5-285.2-364.5-285.2s299.7-69.1,398.3,169.8"/>
	<g id="XMLID_8_">
		<path id="XMLID_12_" style="fill:#FFFFFF;" d="M483.5,572.9C458.8,209.2,20.3,54.6,20.3,54.6S481.7,32,564,411.2"/>
		<g id="XMLID_9_">
			<path id="XMLID_11_" style="fill:none;stroke:#000000;stroke-miterlimit:10;" d="M477.1,539.9C452.3,176.2,13.9,21.7,13.9,21.7
				S475.3-1,557.6,378.3"/>
			<path id="XMLID_10_" style="fill:none;stroke:#000000;stroke-miterlimit:10;" d="M567.3,570.5c0,0-51.5-451-553.4-548.8"/>
		</g>
	</g>
	<g id="XMLID_5_">
		<path id="XMLID_7_" style="fill:none;stroke:#000000;stroke-width:2;stroke-miterlimit:10;" d="M529,626.6
			c0,0-20.8-264.4-311.8-331.8"/>
		<path id="XMLID_6_" style="fill:none;stroke:#000000;stroke-width:2;stroke-miterlimit:10;" d="M477,607
			c-7-212.8-259.8-312.1-259.8-312.1s269.8-3.7,310.1,219.4"/>
	</g>
	<g id="XMLID_2_">
		<path id="XMLID_4_" style="fill:none;stroke:#000000;stroke-miterlimit:10;" d="M521.3,697.1c0,0-86.8-289.6-427.3-294.6"/>
		<path id="XMLID_3_" style="fill:none;stroke:#000000;stroke-miterlimit:10;" d="M458.6,687.7c-59-235.5-364.5-285.2-364.5-285.2
			s299.7-69.1,398.3,169.8"/>
	</g>
</g>
</svg>
