<svg version="1.1" id="Calque_1" xmlns="http://www.w3.org/2000/svg" x="0" y="0" viewBox="0 0 960 560" xml:space="preserve">
  <style>
    .logo0{fill:#fff;stroke:#fff;stroke-width:3;stroke-miterlimit:10}.logo1{fill:#ff8e4e}
  </style>
  <path class="logo0" d="M104.4 231.6v96.6H75.2V177.5h22.7l78.5 98.9v-98.7h29.3v150.5h-23.8l-77.5-96.6zM263.6 330.3c-5.4 0-10.4-.9-15.1-2.7-4.7-1.8-8.7-4.2-12.1-7.4-3.4-3.2-6-6.9-8-11.1s-2.9-8.9-2.9-14c0-5.2 1.2-10.1 3.5-14.5 2.3-4.5 5.6-8.2 9.8-11.4 4.2-3.1 9.2-5.6 15-7.3 5.8-1.8 12.2-2.7 19.1-2.7 4.9 0 9.8.4 14.5 1.3 4.7.8 8.9 2.1 12.6 3.6v-6.4c0-7.4-2.1-13-6.3-17-4.2-4-10.4-5.9-18.6-5.9-5.9 0-11.7 1.1-17.4 3.2-5.7 2.1-11.5 5.2-17.4 9.3l-8.7-18c14.3-9.5 29.7-14.2 46.3-14.2 16 0 28.4 3.9 37.2 11.8 8.8 7.9 13.3 19.2 13.3 34.1v34.6c0 3 .5 5.1 1.6 6.4 1.1 1.3 2.8 2 5.2 2.1v24.2c-4.8 1-9 1.5-12.5 1.5-5.4 0-9.5-1.2-12.4-3.6-2.9-2.4-4.7-5.6-5.4-9.6l-.6-6.2c-5 6.5-11 11.5-18 14.9-7.1 3.3-14.6 5-22.7 5zm8.1-20.8c4.8 0 9.4-.8 13.7-2.5 4.3-1.7 7.7-4 10.1-6.8 3.1-2.4 4.7-5.1 4.7-8.1v-12.7c-3.4-1.3-7.1-2.3-11-3.1-4-.8-7.8-1.2-11.5-1.2-7.4 0-13.4 1.7-18 5-4.7 3.3-7 7.5-7 12.6 0 4.8 1.8 8.8 5.5 12 3.6 3.2 8.1 4.8 13.5 4.8zM420.9 322.4c-3.8 1.7-8.5 3.4-14 5.1-5.5 1.7-11.3 2.5-17.4 2.5-4 0-7.7-.5-11.1-1.5-3.5-1-6.5-2.6-9.1-4.8-2.6-2.2-4.7-5-6.3-8.5-1.6-3.5-2.3-7.7-2.3-12.6v-63.9h-14.6V217h14.6v-36.1H389V217h23.3v21.9H389v54.3c0 4 1 6.8 3.1 8.4 2 1.6 4.6 2.4 7.5 2.4 3 0 5.9-.5 8.7-1.5 2.8-1 5.1-1.8 6.8-2.5l5.8 22.4zM435.7 201.5v-28.2h28.4v28.2h-28.4zm0 126.7V217h28.4v111.2h-28.4zM541.2 330.3c-9.1 0-17.2-1.6-24.4-4.7-7.2-3.1-13.3-7.3-18.4-12.6-5-5.3-8.9-11.4-11.6-18.4-2.7-6.9-4-14.2-4-21.9 0-7.8 1.3-15.1 4-22.1 2.7-6.9 6.5-13.1 11.6-18.4 5-5.3 11.1-9.5 18.4-12.6 7.2-3.1 15.3-4.7 24.4-4.7 9.1 0 17.2 1.6 24.3 4.7 7.1 3.1 13.2 7.3 18.3 12.6 5 5.3 8.9 11.4 11.6 18.4 2.7 6.9 4 14.3 4 22.1 0 7.6-1.3 14.9-4 21.9-2.7 6.9-6.5 13.1-11.5 18.4-5 5.3-11 9.5-18.2 12.6-7.3 3.1-15.5 4.7-24.5 4.7zm-29.1-57.5c0 5 .7 9.4 2.2 13.5 1.5 4 3.5 7.5 6.2 10.5 2.6 3 5.7 5.3 9.2 6.9 3.5 1.6 7.4 2.4 11.5 2.4s7.9-.8 11.5-2.4c3.5-1.6 6.6-3.9 9.2-6.9 2.6-3 4.7-6.5 6.2-10.6s2.2-8.6 2.2-13.6c0-4.8-.7-9.3-2.2-13.4-1.5-4.1-3.5-7.6-6.2-10.6-2.6-3-5.7-5.3-9.2-6.9-3.5-1.6-7.4-2.4-11.5-2.4s-7.9.8-11.5 2.5c-3.5 1.7-6.6 4-9.2 7-2.6 3-4.7 6.5-6.2 10.6s-2.2 8.6-2.2 13.4zM721.8 328.2h-28.4v-62.4c0-8.9-1.6-15.4-4.7-19.5s-7.4-6.2-12.9-6.2c-2.8 0-5.7.6-8.7 1.7-3 1.1-5.8 2.7-8.4 4.8-2.6 2.1-5 4.5-7.1 7.3-2.1 2.8-3.7 5.9-4.7 9.3v64.9h-28.4V217h25.7v20.6c4.1-7.1 10-12.6 17.8-16.6 7.8-4 16.6-5.9 26.3-5.9 6.9 0 12.6 1.3 17 3.8s7.8 5.9 10.2 10c2.4 4.1 4.1 8.8 5 14 .9 5.2 1.4 10.5 1.4 15.9v69.4zM216.3 493c-9.3 0-18.5-1.5-27.4-4.5-8.9-3-16.6-7.2-22.9-12.7l10.6-17.8c6.8 4.8 13.4 8.5 19.8 10.9 6.4 2.5 12.8 3.7 19.2 3.7 5.7 0 10.1-1.1 13.4-3.2 3.3-2.1 4.9-5.2 4.9-9.1 0-4-1.9-6.9-5.7-8.7-3.8-1.8-10-4-18.7-6.4-7.2-2-13.4-3.9-18.5-5.7-5.1-1.8-9.2-3.9-12.3-6.3-3.1-2.3-5.4-5-6.8-8.1-1.4-3-2.1-6.7-2.1-10.9 0-5.7 1.1-10.8 3.3-15.3 2.2-4.5 5.3-8.4 9.2-11.6 4-3.2 8.6-5.6 13.9-7.3 5.3-1.7 11.1-2.5 17.3-2.5 8.3 0 16.2 1.2 23.4 3.6 7.3 2.4 14 6.3 20.1 11.7L245.6 410c-5.7-4.2-11.1-7.4-16.4-9.3-5.3-2-10.6-3-15.8-3-4.8 0-8.8 1-12.1 3-3.3 2-4.9 5.2-4.9 9.5 0 2 .4 3.6 1.2 4.9.8 1.3 2 2.4 3.7 3.4 1.7 1 3.9 1.9 6.7 2.9 2.8.9 6.2 1.9 10.3 2.9 7.6 2 14.2 4 19.6 5.9 5.4 2 9.9 4.2 13.4 6.8 3.5 2.5 6 5.5 7.6 8.8 1.6 3.3 2.4 7.3 2.4 12 0 10.9-4 19.5-12.1 25.8-8.1 6.3-19.1 9.4-32.9 9.4zM331.1 493c-9.1 0-17.2-1.6-24.4-4.7-7.2-3.1-13.3-7.3-18.4-12.6-5-5.3-8.9-11.4-11.6-18.4-2.7-6.9-4-14.2-4-21.9 0-7.8 1.3-15.1 4-22.1 2.7-6.9 6.5-13.1 11.6-18.4 5-5.3 11.1-9.5 18.4-12.6 7.2-3.1 15.3-4.7 24.4-4.7 9.1 0 17.2 1.6 24.3 4.7 7.1 3.1 13.2 7.3 18.3 12.6 5 5.3 8.9 11.4 11.6 18.4 2.7 6.9 4 14.3 4 22.1 0 7.6-1.3 14.9-4 21.9-2.7 6.9-6.5 13.1-11.5 18.4-5 5.3-11 9.5-18.2 12.6-7.3 3.1-15.5 4.7-24.5 4.7zM302 435.5c0 5 .7 9.4 2.2 13.5 1.5 4 3.5 7.5 6.2 10.5 2.6 3 5.7 5.3 9.2 6.9 3.5 1.6 7.4 2.4 11.5 2.4s7.9-.8 11.5-2.4c3.5-1.6 6.6-3.9 9.2-6.9 2.6-3 4.7-6.5 6.2-10.6s2.2-8.6 2.2-13.6c0-4.8-.7-9.3-2.2-13.4-1.5-4.1-3.5-7.6-6.2-10.6-2.6-3-5.7-5.3-9.2-6.9-3.5-1.6-7.4-2.4-11.5-2.4s-7.9.8-11.5 2.5c-3.5 1.7-6.6 4-9.2 7-2.6 3-4.7 6.5-6.2 10.6-1.4 4.1-2.2 8.6-2.2 13.4zM442.3 493c-11.5 0-20.2-3.7-26.1-11-5.9-7.4-8.9-18.3-8.9-32.7v-69.6h28.4v63.5c0 17.1 6.2 25.7 18.5 25.7 5.5 0 10.9-1.7 16-5 5.2-3.3 9.4-8.4 12.6-15.2v-69h28.4v78.5c0 3 .5 5.1 1.6 6.4 1.1 1.3 2.8 2 5.2 2.1v24.2c-2.8.6-5.2.9-7.1 1.1-1.9.1-3.6.2-5.2.2-5.1 0-9.2-1.2-12.4-3.5-3.2-2.3-5.1-5.6-5.6-9.7l-.6-8.9c-5 7.6-11.3 13.4-19.1 17.2-7.8 3.8-16.4 5.7-25.7 5.7zM642.8 490.9h-28.4v-62.4c0-8.9-1.6-15.4-4.7-19.5s-7.4-6.2-12.9-6.2c-2.8 0-5.7.6-8.7 1.7-3 1.1-5.8 2.7-8.4 4.8-2.6 2.1-5 4.5-7.1 7.3-2.1 2.8-3.7 5.9-4.7 9.3v64.9h-28.4V379.7h25.7v20.6c4.1-7.1 10-12.6 17.8-16.6 7.8-4 16.6-5.9 26.3-5.9 6.9 0 12.6 1.3 17 3.8s7.8 5.9 10.2 10c2.4 4.1 4.1 8.8 5 14 .9 5.2 1.4 10.5 1.4 15.9v69.4zM713.7 493c-7.6 0-14.7-1.5-21.2-4.5s-12.1-7.1-16.8-12.3c-4.7-5.2-8.3-11.4-10.9-18.4-2.6-7-3.9-14.5-3.9-22.6 0-8.1 1.2-15.6 3.7-22.5s5.9-13 10.3-18.2c4.4-5.2 9.6-9.3 15.7-12.3s12.7-4.5 19.9-4.5c8.2 0 15.6 2 22.2 5.9 6.6 4 11.7 9.1 15.4 15.5V336h28.4v122.2c0 3 .5 5.1 1.5 6.4 1 1.3 2.7 2 5.1 2.1v24.2c-5 1-9 1.5-12.1 1.5-5.1 0-9.3-1.3-12.5-3.8-3.3-2.5-5.1-5.9-5.5-10l-.6-7c-4.1 7.1-9.7 12.4-16.7 16-7 3.6-14.4 5.4-22 5.4zm7.4-24.2c2.7 0 5.4-.5 8.3-1.4 2.8-.9 5.4-2.2 7.9-3.9 2.4-1.7 4.6-3.7 6.5-5.9 1.9-2.3 3.4-4.7 4.4-7.4v-26.5c-1.1-3.1-2.7-6-4.8-8.6-2.1-2.6-4.4-4.9-7-6.8-2.6-1.9-5.4-3.4-8.3-4.6-2.9-1.1-5.8-1.7-8.6-1.7-4.2 0-8.2.9-11.8 2.8-3.6 1.8-6.7 4.4-9.2 7.5-2.5 3.2-4.5 6.8-5.9 10.9-1.4 4.1-2.1 8.4-2.1 12.7 0 4.7.8 9 2.3 12.9 1.6 4 3.7 7.4 6.4 10.4s5.9 5.3 9.7 7c3.6 1.8 7.7 2.6 12.2 2.6zM846.5 493c-9.3 0-18.5-1.5-27.4-4.5-8.9-3-16.6-7.2-22.9-12.7l10.6-17.8c6.8 4.8 13.4 8.5 19.8 10.9 6.4 2.5 12.8 3.7 19.2 3.7 5.7 0 10.1-1.1 13.4-3.2 3.3-2.1 4.9-5.2 4.9-9.1 0-4-1.9-6.9-5.7-8.7-3.8-1.8-10-4-18.7-6.4-7.2-2-13.4-3.9-18.5-5.7-5.1-1.8-9.2-3.9-12.3-6.3-3.1-2.3-5.4-5-6.8-8.1-1.4-3-2.1-6.7-2.1-10.9 0-5.7 1.1-10.8 3.3-15.3 2.2-4.5 5.3-8.4 9.2-11.6 4-3.2 8.6-5.6 13.9-7.3 5.3-1.7 11.1-2.5 17.3-2.5 8.3 0 16.2 1.2 23.5 3.6 7.3 2.4 14 6.3 20.1 11.7L875.8 410c-5.7-4.2-11.1-7.4-16.4-9.3-5.3-2-10.6-3-15.8-3-4.8 0-8.8 1-12.1 3-3.3 2-4.9 5.2-4.9 9.5 0 2 .4 3.6 1.2 4.9.8 1.3 2 2.4 3.7 3.4 1.7 1 3.9 1.9 6.7 2.9 2.8.9 6.2 1.9 10.3 2.9 7.6 2 14.2 4 19.6 5.9 5.4 2 9.9 4.2 13.4 6.8 3.5 2.5 6 5.5 7.6 8.8 1.6 3.3 2.4 7.3 2.4 12 0 10.9-4 19.5-12.1 25.8-8 6.3-19 9.4-32.9 9.4z"/>
  <g>
    <path d="M95.6 212.2v96.6H66.3V158.1H89l78.5 98.9v-98.7h29.3v150.5H173l-77.4-96.6zM254.8 310.8c-5.4 0-10.4-.9-15.1-2.7-4.7-1.8-8.7-4.2-12.1-7.4-3.4-3.2-6-6.9-8-11.1-1.9-4.2-2.9-8.9-2.9-14 0-5.2 1.2-10.1 3.5-14.5 2.3-4.5 5.6-8.2 9.8-11.4 4.2-3.1 9.2-5.6 15-7.3 5.8-1.8 12.2-2.7 19.1-2.7 4.9 0 9.8.4 14.5 1.3 4.7.8 8.9 2.1 12.6 3.6v-6.4c0-7.4-2.1-13-6.3-17-4.2-4-10.4-5.9-18.6-5.9-5.9 0-11.7 1.1-17.4 3.2-5.7 2.1-11.5 5.2-17.4 9.3l-8.7-18c14.3-9.5 29.7-14.2 46.3-14.2 16 0 28.4 3.9 37.2 11.8 8.8 7.9 13.3 19.2 13.3 34.1V276c0 3 .5 5.1 1.6 6.4 1.1 1.3 2.8 2 5.2 2.1v24.2c-4.8 1-9 1.5-12.5 1.5-5.4 0-9.5-1.2-12.4-3.6-2.9-2.4-4.7-5.6-5.4-9.6l-.6-6.2c-5 6.5-11 11.5-18 14.9-7.1 3.5-14.7 5.1-22.7 5.1zm8-20.7c4.8 0 9.4-.8 13.7-2.5 4.3-1.7 7.7-4 10.1-6.8 3.1-2.4 4.7-5.1 4.7-8.1V260c-3.4-1.3-7.1-2.3-11-3.1-4-.8-7.8-1.2-11.5-1.2-7.4 0-13.4 1.7-18 5-4.7 3.3-7 7.5-7 12.6 0 4.8 1.8 8.8 5.5 12 3.6 3.2 8.1 4.8 13.5 4.8zM412 303c-3.8 1.7-8.5 3.4-14 5.1-5.5 1.7-11.3 2.5-17.4 2.5-4 0-7.7-.5-11.1-1.5-3.5-1-6.5-2.6-9.1-4.8-2.6-2.2-4.7-5-6.3-8.5-1.6-3.5-2.3-7.7-2.3-12.6v-63.9h-14.6v-21.9h14.6v-36.1h28.4v36.1h23.3v21.9h-23.3v54.3c0 4 1 6.8 3.1 8.4 2 1.6 4.6 2.4 7.5 2.4 3 0 5.9-.5 8.7-1.5 2.8-1 5.1-1.8 6.8-2.5L412 303zM426.9 182v-28.2h28.4V182h-28.4zm0 126.7V197.5h28.4v111.2h-28.4zM532.3 310.8c-9.1 0-17.2-1.6-24.4-4.7-7.2-3.1-13.3-7.3-18.4-12.6-5-5.3-8.9-11.4-11.6-18.4-2.7-6.9-4-14.2-4-21.9 0-7.8 1.3-15.1 4-22.1 2.7-6.9 6.5-13.1 11.6-18.4 5-5.3 11.1-9.5 18.4-12.6s15.3-4.7 24.4-4.7c9.1 0 17.2 1.6 24.3 4.7 7.1 3.1 13.2 7.3 18.3 12.6 5 5.3 8.9 11.4 11.6 18.4 2.7 6.9 4 14.3 4 22.1 0 7.6-1.3 14.9-4 21.9-2.7 6.9-6.5 13.1-11.5 18.4-5 5.3-11 9.5-18.2 12.6-7.3 3.2-15.4 4.7-24.5 4.7zm-29-57.5c0 5 .7 9.4 2.2 13.5 1.5 4 3.5 7.5 6.2 10.5 2.6 3 5.7 5.3 9.2 6.9 3.5 1.6 7.4 2.4 11.5 2.4s7.9-.8 11.5-2.4c3.5-1.6 6.6-3.9 9.2-6.9 2.6-3 4.7-6.5 6.2-10.6s2.2-8.6 2.2-13.6c0-4.8-.7-9.3-2.2-13.4-1.5-4.1-3.5-7.6-6.2-10.6-2.6-3-5.7-5.3-9.2-6.9-3.5-1.6-7.4-2.4-11.5-2.4s-7.9.8-11.5 2.5c-3.5 1.7-6.6 4-9.2 7-2.6 3-4.7 6.5-6.2 10.6-1.5 4.2-2.2 8.6-2.2 13.4zM712.9 308.7h-28.4v-62.4c0-8.9-1.6-15.4-4.7-19.5s-7.4-6.2-12.9-6.2c-2.8 0-5.7.6-8.7 1.7-3 1.1-5.8 2.7-8.4 4.8-2.6 2.1-5 4.5-7.1 7.3-2.1 2.8-3.7 5.9-4.7 9.3v64.9h-28.4V197.5h25.7v20.6c4.1-7.1 10-12.6 17.8-16.6 7.8-4 16.6-5.9 26.3-5.9 6.9 0 12.6 1.3 17 3.8s7.8 5.9 10.2 10c2.4 4.1 4.1 8.8 5 14 .9 5.2 1.4 10.5 1.4 15.9v69.4zM207.4 473.5c-9.3 0-18.5-1.5-27.4-4.5-8.9-3-16.6-7.2-22.9-12.7l10.6-17.8c6.8 4.8 13.4 8.5 19.8 10.9 6.4 2.5 12.8 3.7 19.2 3.7 5.7 0 10.1-1.1 13.4-3.2 3.3-2.1 4.9-5.2 4.9-9.1 0-4-1.9-6.9-5.7-8.7-3.8-1.8-10-4-18.7-6.4-7.2-2-13.4-3.9-18.5-5.7-5.1-1.8-9.2-3.9-12.3-6.3-3.1-2.3-5.4-5-6.8-8.1-1.4-3-2.1-6.7-2.1-10.9 0-5.7 1.1-10.8 3.3-15.3 2.2-4.5 5.3-8.4 9.2-11.6 4-3.2 8.6-5.6 13.9-7.3 5.3-1.7 11.1-2.5 17.3-2.5 8.3 0 16.2 1.2 23.4 3.6 7.3 2.4 14 6.3 20.1 11.7l-11.5 17.2c-5.7-4.2-11.1-7.4-16.4-9.3-5.3-2-10.6-3-15.8-3-4.8 0-8.8 1-12.1 3-3.3 2-4.9 5.2-4.9 9.5 0 2 .4 3.6 1.2 4.9.8 1.3 2 2.4 3.7 3.4 1.7 1 3.9 1.9 6.7 2.9 2.8.9 6.2 1.9 10.3 2.9 7.6 2 14.2 4 19.6 5.9 5.4 2 9.9 4.2 13.4 6.8 3.5 2.5 6 5.5 7.6 8.8 1.6 3.3 2.4 7.3 2.4 12 0 10.9-4 19.5-12.1 25.8-7.9 6.3-18.9 9.4-32.8 9.4zM322.2 473.5c-9.1 0-17.2-1.6-24.4-4.7-7.2-3.1-13.3-7.3-18.4-12.6-5-5.3-8.9-11.4-11.6-18.4-2.7-6.9-4-14.2-4-21.9 0-7.8 1.3-15.1 4-22.1 2.7-6.9 6.5-13.1 11.6-18.4 5-5.3 11.1-9.5 18.4-12.6 7.2-3.1 15.3-4.7 24.4-4.7 9.1 0 17.2 1.6 24.3 4.7 7.1 3.1 13.2 7.3 18.3 12.6 5 5.3 8.9 11.4 11.6 18.4 2.7 6.9 4 14.3 4 22.1 0 7.6-1.3 14.9-4 21.9-2.7 6.9-6.5 13.1-11.5 18.4-5 5.3-11 9.5-18.2 12.6-7.3 3.2-15.4 4.7-24.5 4.7zm-29-57.5c0 5 .7 9.4 2.2 13.5 1.5 4 3.5 7.5 6.2 10.5 2.6 3 5.7 5.3 9.2 6.9 3.5 1.6 7.4 2.4 11.5 2.4s7.9-.8 11.5-2.4c3.5-1.6 6.6-3.9 9.2-6.9 2.6-3 4.7-6.5 6.2-10.6s2.2-8.6 2.2-13.6c0-4.8-.7-9.3-2.2-13.4-1.5-4.1-3.5-7.6-6.2-10.6-2.6-3-5.7-5.3-9.2-6.9-3.5-1.6-7.4-2.4-11.5-2.4s-7.9.8-11.5 2.5c-3.5 1.7-6.6 4-9.2 7-2.6 3-4.7 6.5-6.2 10.6-1.5 4.2-2.2 8.6-2.2 13.4zM433.4 473.5c-11.5 0-20.2-3.7-26.1-11-5.9-7.4-8.9-18.3-8.9-32.7v-69.6h28.4v63.5c0 17.1 6.2 25.7 18.5 25.7 5.5 0 10.9-1.7 16-5 5.2-3.3 9.4-8.4 12.6-15.2v-69h28.4v78.5c0 3 .5 5.1 1.6 6.4 1.1 1.3 2.8 2 5.2 2.1v24.2c-2.8.6-5.2.9-7.1 1.1-1.9.1-3.6.2-5.2.2-5.1 0-9.2-1.2-12.4-3.5-3.2-2.3-5.1-5.6-5.6-9.7l-.6-8.9c-5 7.6-11.3 13.4-19.1 17.2-7.8 3.8-16.3 5.7-25.7 5.7zM634 471.4h-28.4V409c0-8.9-1.6-15.4-4.7-19.5s-7.4-6.2-12.9-6.2c-2.8 0-5.7.6-8.7 1.7-3 1.1-5.8 2.7-8.4 4.8-2.6 2.1-5 4.5-7.1 7.3-2.1 2.8-3.7 5.9-4.7 9.3v64.9h-28.4V360.2h25.7v20.6c4.1-7.1 10-12.6 17.8-16.6 7.8-4 16.6-5.9 26.3-5.9 6.9 0 12.6 1.3 17 3.8s7.8 5.9 10.2 10c2.4 4.1 4.1 8.8 5 14 .9 5.2 1.4 10.5 1.4 15.9v69.4zM704.9 473.5c-7.6 0-14.7-1.5-21.2-4.5s-12.1-7.1-16.8-12.3c-4.7-5.2-8.3-11.4-10.9-18.4-2.6-7-3.9-14.5-3.9-22.6 0-8.1 1.2-15.6 3.7-22.5s5.9-13 10.3-18.2c4.4-5.2 9.6-9.3 15.7-12.3s12.7-4.5 19.9-4.5c8.2 0 15.6 2 22.2 5.9 6.6 4 11.7 9.1 15.4 15.5v-63.2h28.4v122.2c0 3 .5 5.1 1.5 6.4 1 1.3 2.7 2 5.1 2.1v24.2c-5 1-9 1.5-12.1 1.5-5.1 0-9.3-1.3-12.5-3.8-3.3-2.5-5.1-5.9-5.5-10l-.6-7c-4.1 7.1-9.7 12.4-16.7 16-7.1 3.7-14.4 5.5-22 5.5zm7.4-24.1c2.7 0 5.4-.5 8.3-1.4 2.8-.9 5.4-2.2 7.9-3.9 2.4-1.7 4.6-3.7 6.5-5.9 1.9-2.3 3.4-4.7 4.4-7.4v-26.5c-1.1-3.1-2.7-6-4.8-8.6-2.1-2.6-4.4-4.9-7-6.8-2.6-1.9-5.4-3.4-8.3-4.6-2.9-1.1-5.8-1.7-8.6-1.7-4.2 0-8.2.9-11.8 2.8-3.6 1.8-6.7 4.4-9.2 7.5-2.5 3.2-4.5 6.8-5.9 10.9-1.4 4.1-2.1 8.4-2.1 12.7 0 4.7.8 9 2.3 12.9 1.6 4 3.7 7.4 6.4 10.4s5.9 5.3 9.7 7c3.5 1.7 7.7 2.6 12.2 2.6zM837.7 473.5c-9.3 0-18.5-1.5-27.4-4.5-8.9-3-16.6-7.2-22.9-12.7l10.6-17.8c6.8 4.8 13.4 8.5 19.8 10.9 6.4 2.5 12.8 3.7 19.2 3.7 5.7 0 10.1-1.1 13.4-3.2 3.3-2.1 4.9-5.2 4.9-9.1 0-4-1.9-6.9-5.7-8.7-3.8-1.8-10-4-18.7-6.4-7.2-2-13.4-3.9-18.5-5.7-5.1-1.8-9.2-3.9-12.3-6.3-3.1-2.3-5.4-5-6.8-8.1-1.4-3-2.1-6.7-2.1-10.9 0-5.7 1.1-10.8 3.3-15.3 2.2-4.5 5.3-8.4 9.2-11.6 4-3.2 8.6-5.6 13.9-7.3 5.3-1.7 11.1-2.5 17.3-2.5 8.3 0 16.2 1.2 23.5 3.6 7.3 2.4 14 6.3 20.1 11.7L867 390.6c-5.7-4.2-11.1-7.4-16.4-9.3-5.3-2-10.6-3-15.8-3-4.8 0-8.8 1-12.1 3-3.3 2-4.9 5.2-4.9 9.5 0 2 .4 3.6 1.2 4.9.8 1.3 2 2.4 3.7 3.4 1.7 1 3.9 1.9 6.7 2.9 2.8.9 6.2 1.9 10.3 2.9 7.6 2 14.2 4 19.6 5.9 5.4 2 9.9 4.2 13.4 6.8 3.5 2.5 6 5.5 7.6 8.8 1.6 3.3 2.4 7.3 2.4 12 0 10.9-4 19.5-12.1 25.8-8.1 6.2-19 9.3-32.9 9.3z"/>
  </g>
  <g>
    <path class="logo1" d="M67.2 143.2V67.9H117v8.5H76.7v25.1h33.8v8H76.7v33.7h-9.5zM148.7 144.3c-4.2 0-8-.8-11.4-2.3-3.4-1.5-6.4-3.6-8.9-6.2s-4.5-5.7-5.8-9.1c-1.4-3.4-2.1-7.1-2.1-11 0-5.2 1.2-9.9 3.6-14.2 2.4-4.3 5.7-7.7 10-10.3 4.3-2.6 9.2-3.9 14.7-3.9 5.6 0 10.5 1.3 14.6 4s7.4 6.1 9.7 10.3c2.3 4.3 3.4 8.8 3.4 13.8 0 .7 0 1.4-.1 2.1 0 .7-.1 1.2-.2 1.5h-45.9c.3 3.6 1.3 6.7 3 9.5s4 4.9 6.7 6.5c2.8 1.6 5.7 2.4 8.9 2.4 3.4 0 6.6-.8 9.6-2.5s5.1-3.9 6.2-6.7l8.1 2.2c-1.2 2.7-3 5.1-5.4 7.2-2.4 2.1-5.2 3.8-8.4 5s-6.6 1.7-10.3 1.7zM130 112.5h37.8c-.3-3.6-1.3-6.7-3.1-9.4s-4-4.9-6.8-6.4-5.8-2.3-9.1-2.3-6.3.8-9 2.3c-2.8 1.5-5 3.7-6.7 6.4-1.8 2.6-2.8 5.8-3.1 9.4zM205.8 144.3c-4.6 0-8.9-.8-12.9-2.3-4-1.5-7.5-3.8-10.4-6.8l3.6-6.6c3.2 3 6.4 5.1 9.6 6.4 3.2 1.3 6.4 1.9 9.8 1.9 3.8 0 6.9-.7 9.3-2.1 2.4-1.4 3.6-3.5 3.6-6.3 0-2-.6-3.5-1.9-4.5-1.2-1-3-1.8-5.3-2.5s-5-1.4-8.1-2.3c-3.8-1.1-7-2.3-9.7-3.6-2.6-1.3-4.6-2.8-5.9-4.7-1.3-1.9-2-4.3-2-7.2 0-3.5.9-6.5 2.8-8.9 1.8-2.4 4.4-4.3 7.6-5.5 3.2-1.3 6.9-1.9 11-1.9s7.8.6 11.1 1.9c3.3 1.3 6.2 3.1 8.6 5.6l-4.2 6.5c-2.2-2.3-4.6-3.9-7.2-5s-5.6-1.6-8.8-1.6c-1.9 0-3.8.2-5.6.7-1.8.5-3.4 1.3-4.6 2.4-1.2 1.2-1.8 2.8-1.8 4.9 0 1.8.5 3.1 1.4 4.2 1 1 2.4 1.9 4.2 2.6 1.9.7 4.2 1.5 6.8 2.3 4.2 1.2 7.8 2.4 10.9 3.6 3.1 1.2 5.5 2.7 7.2 4.6 1.7 1.9 2.5 4.5 2.5 7.9 0 5.2-2 9.2-5.9 12.2-3.9 2.6-9.1 4.1-15.7 4.1zM267.3 140.8c-.8.4-1.8.8-3.2 1.4s-2.9 1.1-4.7 1.5c-1.8.4-3.6.6-5.6.6-2.3 0-4.3-.4-6.3-1.2s-3.4-2.1-4.6-3.8c-1.1-1.7-1.7-3.9-1.7-6.5V95.5h-7.5v-7.3h7.5V69.7h9.3v18.5H263v7.3h-12.4v34.4c.1 2 .8 3.5 2 4.4 1.2 1 2.6 1.4 4.2 1.4 1.8 0 3.5-.3 5.1-1 1.6-.6 2.6-1.1 3.1-1.4l2.3 7.5zM276 77.4V65.8h9.3v11.7H276zm0 65.8V87.8h9.3v55.4H276zM316.3 143.2l-21.8-55.1h9.8l17.4 46.2 17.4-46.2h9.1l-21.8 55.1h-10.1zM351.9 127.3c0-3.5 1-6.6 3-9.1 2-2.6 4.8-4.6 8.3-6 3.5-1.4 7.6-2.1 12.3-2.1 2.5 0 5.1.2 7.9.6 2.8.4 5.2 1 7.3 1.8v-4c0-4.2-1.3-7.5-3.8-9.9-2.5-2.4-6.2-3.6-10.8-3.6-3 0-6 .5-8.8 1.6-2.8 1.1-5.7 2.7-8.9 4.7l-3.4-6.6c3.6-2.5 7.2-4.3 10.8-5.6 3.6-1.2 7.4-1.9 11.2-1.9 7.1 0 12.7 1.9 16.8 5.8 4.1 3.9 6.2 9.3 6.2 16.3v23.2c0 1.1.2 1.9.7 2.5.5.5 1.2.8 2.3.9v7.2c-.9.1-1.7.2-2.4.3-.7.1-1.2.1-1.6.1-2.2 0-3.8-.6-4.9-1.8-1.1-1.2-1.7-2.5-1.9-3.8l-.2-3.5c-2.4 3.1-5.6 5.5-9.4 7.2-3.9 1.7-7.7 2.5-11.6 2.5-3.7 0-7-.8-9.9-2.3-2.9-1.5-5.2-3.6-6.8-6.1-1.6-2.4-2.4-5.2-2.4-8.4zm36 3.9c.8-1 1.5-2 2-3s.7-1.9.7-2.6v-6.8c-2.2-.8-4.5-1.5-6.9-1.9-2.4-.5-4.8-.7-7.1-.7-4.7 0-8.6.9-11.5 2.8-2.9 1.9-4.4 4.4-4.4 7.6 0 1.7.5 3.4 1.4 5.1 1 1.6 2.4 3 4.2 4 1.9 1.1 4.2 1.6 7 1.6 2.9 0 5.7-.6 8.3-1.7 2.7-1.2 4.8-2.7 6.3-4.4zM415.2 65.8h9.3v63.4c0 3.1.4 4.9 1.3 5.7.8.7 1.9 1.1 3.1 1.1 1.5 0 2.9-.2 4.2-.5 1.3-.3 2.5-.7 3.4-1l1.5 7.6c-1.6.6-3.4 1.2-5.5 1.6-2.1.4-4 .6-5.6.6-3.6 0-6.5-1-8.5-3.1-2.1-2.1-3.1-4.9-3.1-8.6V65.8z"/>
  </g>
</svg>
