<?xml version="1.0" encoding="utf-8"?>
<!-- Generator: Adobe Illustrator 19.0.0, SVG Export Plug-In . SVG Version: 6.00 Build 0)  -->
<svg version="1.1" id="Calque_1" xmlns="http://www.w3.org/2000/svg" xmlns:xlink="http://www.w3.org/1999/xlink" x="0px" y="0px"
	 viewBox="0 0 960 560" enable-background="new 0 0 960 560" xml:space="preserve">
<path id="XMLID_4_" fill="#A9DEF9" d="M465,257l-130.9-206c-3.5-5.5-10.9-7-16.2-3.2L89.2,211.5c-6.1,4.3-6.4,13.2-0.7,18l94.5,79.2
	c2.2,1.8,5,2.8,7.8,2.7l202-8.3c8-0.3,13.8,7.4,11.3,15l-32.3,97.4c-1.4,4.4-5.4,7.4-10,7.8l-104.2,7.6c-7.1,0.5-12,7.4-10.2,14.3
	l21,79.3c1.4,5.1,6.1,8.6,11.4,8.5l217.4-6.9c1.1,0,2.2-0.2,3.3-0.6c23.3-7.8,294.7-99,298.4-102.7c3.4-3.4,45.7-198.5,56-245.9
	c1.3-5.8-2.2-11.6-7.9-13.3l-180.8-54.2c-3.3-1-6.8-0.4-9.7,1.5l-116.4,79c-3.3,2.2-5.1,5.9-5,9.9l2,50.5c0.2,5.1-3,9.6-7.7,11.3
	l-39.2,13.2c-4.2,1.4-8.9,0.2-12-3l-11.9-12.8C465.8,258.2,465.3,257.6,465,257z"/>
<path id="XMLID_1_" fill="#D0F4DE" d="M463,253l-130.9-206c-3.5-5.5-10.9-7-16.2-3.2L87.2,207.5c-6.1,4.3-6.4,13.2-0.7,18l94.5,79.2
	c2.2,1.8,5,2.8,7.8,2.7l202-8.3c8-0.3,13.8,7.4,11.3,15l-32.3,97.4c-1.4,4.4-5.4,7.4-10,7.8l-104.2,7.6c-7.1,0.5-12,7.4-10.2,14.3
	l21,79.3c1.4,5.1,6.1,8.6,11.4,8.5l217.4-6.9c1.1,0,2.2-0.2,3.3-0.6c23.3-7.8,294.7-99,298.4-102.7c3.4-3.4,45.7-198.5,56-245.9
	c1.3-5.8-2.2-11.6-7.9-13.3l-180.8-54.2c-3.3-1-6.8-0.4-9.7,1.5l-116.4,79c-3.3,2.2-5.1,5.9-5,9.9l2,50.5c0.2,5.1-3,9.6-7.7,11.3
	l-39.2,13.2c-4.2,1.4-8.9,0.2-12-3l-11.9-12.8C463.8,254.2,463.3,253.6,463,253z"/>
<path id="XMLID_3_" fill="#FF8E4E" d="M716.4,491c1.3-2,0.2-4.6-2.2-5.1c-8.6-1.6-24.3-7.6-30.5-11.7c-6.6-4.3-0.7-5.1,7.9-9
	c2.9-1.3,3-5.3,0-6.3l-45-14.4c-2.4-0.8-4.7,1.3-4.2,3.8l6.4,31c0.5,2.3,3,3.1,5.1,2c10.1-5.2,12.9-8.3,16.6-4.1
	c4.1,4.6,27.8,20.5,34.7,21.8C709.5,500,713.8,495,716.4,491z"/>
<path id="XMLID_9_" fill="#A9DEF9" d="M160.8,146.8h79.8c2.8,0,5-2.2,5-5V95.4c0-2.8-2.2-5-5-5h-79.8c-2.8,0-5,2.2-5,5v46.4
	C155.8,144.5,158,146.8,160.8,146.8z"/>
<path id="XMLID_5_" fill="#A9DEF9" d="M224,504.8h60.3c2.8,0,5-2.2,5-5v-34.2c0-2.8-2.2-5-5-5H224c-2.8,0-5,2.2-5,5v34.2
	C219,502.6,221.2,504.8,224,504.8z"/>
<path id="XMLID_6_" fill="#A9DEF9" d="M568,168.8h60.3c2.8,0,5-2.2,5-5v-34.2c0-2.8-2.2-5-5-5H568c-2.8,0-5,2.2-5,5v34.2
	C563,166.6,565.2,168.8,568,168.8z"/>
<rect id="XMLID_8_" x="96.8" y="234.2" fill="#E4C1F9" stroke="#2F2F2F" stroke-miterlimit="10" width="11.8" height="18.7"/>
<rect id="XMLID_7_" x="487.5" y="510.2" fill="#E4C1F9" stroke="#2F2F2F" stroke-miterlimit="10" width="11.8" height="18.7"/>
<rect id="XMLID_10_" x="843.2" y="159.5" fill="#E4C1F9" stroke="#2F2F2F" stroke-miterlimit="10" width="11.8" height="18.7"/>
<rect id="XMLID_11_" x="384.6" y="366.2" fill="#E4C1F9" stroke="#2F2F2F" stroke-miterlimit="10" width="11.8" height="18.7"/>
</svg>
