<?xml version="1.0" encoding="utf-8"?>
<!-- Generator: Adobe Illustrator 19.0.0, SVG Export Plug-In . SVG Version: 6.00 Build 0)  -->
<svg version="1.1" id="Calque_2" xmlns="http://www.w3.org/2000/svg" xmlns:xlink="http://www.w3.org/1999/xlink" x="0px" y="0px"
	 viewBox="0 0 206.1 115.8" style="enable-background:new 0 0 206.1 115.8;" xml:space="preserve">
<g id="XMLID_18_">
	<path id="XMLID_19_" style="fill:#6B6363;" d="M116.5,29.7c0.6,0,1,0.2,1.3,0.5c0.3,0.3,0.4,0.7,0.4,1.2c0,0.5-0.1,1-0.4,1.4
		c-0.3,0.4-0.7,0.7-1.2,1c-0.5,0.3-1.2,0.6-2,0.7c-0.8,0.2-1.7,0.2-2.8,0.2c-1.1,0-2.2-0.1-3.3-0.2c-1.1-0.1-2.2-0.3-3.3-0.4
		c-1.1-0.1-2.1-0.2-3.1-0.2c-0.6,0-1.3,0-1.9,0.1c-0.6,0.1-1.1,0.2-1.5,0.4c0.3,0.2,0.5,0.5,0.7,0.8s0.3,0.8,0.3,1.2
		c0,0.5-0.1,0.9-0.5,1.3c-0.3,0.4-0.7,0.6-1.3,0.6c-0.5,0-0.9-0.2-1.2-0.5s-0.4-0.8-0.4-1.3c0-0.4,0.1-0.9,0.3-1.4s0.7-0.9,1.4-1.2
		c0.5-0.2,1-0.4,1.5-0.5c0.5-0.1,1-0.2,1.5-0.2s0.8,0,1.1,0c1.2,0,2.3,0.1,3.4,0.2s2.2,0.3,3.3,0.4c1.1,0.1,2.2,0.2,3.3,0.2
		c0.9,0,1.6,0,2.2-0.2c0.6-0.1,1.1-0.3,1.6-0.5l-0.1,0.2c-0.2-0.2-0.4-0.5-0.7-0.8c-0.2-0.4-0.3-0.8-0.3-1.2c0-0.5,0.2-0.9,0.5-1.3
		S115.9,29.7,116.5,29.7z M105.8,33.9c0.4,0,0.8,0.1,1.2,0.1c0.3,0,0.7,0.1,1,0.1c0.3,0,0.7,0.1,1.2,0.1l-4.5,16.9
		c-0.3,1.1-0.3,1.9,0,2.3c0.3,0.4,1.1,0.6,2.3,0.6l-0.1,0.6c-0.6,0-1.3-0.1-2.1-0.1c-0.9,0-1.8,0-2.7,0c-0.9,0-1.8,0-2.7,0
		c-0.9,0-1.5,0-2,0.1l0.1-0.6c0.8,0,1.5-0.1,2-0.3c0.5-0.2,0.8-0.5,1.1-0.9c0.3-0.4,0.5-1,0.7-1.7L105.8,33.9z"/>
	<path id="XMLID_28_" style="fill:#6B6363;" d="M114.2,53.8c0.4,0,0.9-0.3,1.5-0.8c0.5-0.5,1.1-1.2,1.6-2.1c0.6-0.9,1.1-2,1.6-3.2
		s0.9-2.5,1.2-3.8l-0.5,3.3c-1,2.9-2.1,4.9-3.2,6.1c-1.1,1.2-2.2,1.8-3.4,1.8c-1,0-1.8-0.3-2.3-1c-0.5-0.7-0.8-1.6-0.8-2.7
		c0-1,0.2-2.1,0.5-3.2c0.3-1.1,0.8-2.3,1.4-3.4c0.6-1.1,1.3-2.1,2-3c0.8-0.9,1.6-1.6,2.5-2.2c0.9-0.5,1.8-0.8,2.6-0.8
		c0.7,0,1.2,0.3,1.6,0.9s0.5,1.5,0.3,2.7l-0.3,0.2c0.1-0.9,0.1-1.7-0.2-2.3c-0.3-0.6-0.7-0.9-1.2-0.9c-0.6,0-1.2,0.4-1.9,1.1
		c-0.7,0.8-1.3,1.7-1.9,3c-0.6,1.2-1.1,2.5-1.5,4c-0.4,1.4-0.6,2.8-0.6,4.2c0,0.8,0.1,1.4,0.3,1.7C113.7,53.7,113.9,53.8,114.2,53.8
		z M121.4,39.1c0.6,0,1.2-0.1,1.7-0.1c0.6-0.1,1.1-0.2,1.6-0.3L120.9,52c-0.1,0.2-0.1,0.5-0.2,0.7c-0.1,0.3,0,0.5,0,0.7
		c0.1,0.2,0.3,0.3,0.6,0.3c0.4,0,0.7-0.2,1.1-0.6c0.4-0.4,0.7-1.1,1.1-2.2l0.4-1.2h0.6l-0.8,2.2c-0.4,1.2-1,2-1.7,2.5
		c-0.7,0.4-1.3,0.6-1.9,0.6c-0.9,0-1.5-0.3-1.9-0.8c-0.3-0.4-0.3-1-0.3-1.6c0.1-0.6,0.2-1.3,0.4-2L121.4,39.1z"/>
	<path id="XMLID_33_" style="fill:#6B6363;" d="M129.9,52c-0.2,0.6-0.1,1.1,0.1,1.3c0.2,0.3,0.6,0.4,1,0.4c0.4,0,0.9-0.2,1.3-0.6
		c0.4-0.4,0.9-1.1,1.3-2.3l0.4-1.2h0.6l-0.6,1.8c-0.4,1.3-1,2.2-1.7,2.7c-0.7,0.5-1.6,0.8-2.5,0.8c-1.3,0-2.1-0.4-2.5-1.2
		c-0.4-0.8-0.4-1.9,0-3.1l4.6-16c0.6,0,1.2-0.1,1.7-0.1c0.6-0.1,1.1-0.2,1.5-0.3L129.9,52z M137.4,39.1l-0.1,0.6h-9.7l0.1-0.6H137.4
		z"/>
	<path id="XMLID_36_" style="fill:#6B6363;" d="M140.7,41.7c0.4-1.2,0.3-1.7-0.4-1.7c-0.4,0-0.8,0.2-1.2,0.7c-0.3,0.5-0.7,1.2-1,2.1
		l-0.5,1.3H137l0.8-2.2c0.5-1.2,1-2.1,1.8-2.5c0.7-0.4,1.4-0.6,2.1-0.6c0.9,0,1.5,0.2,1.8,0.7c0.3,0.4,0.4,1,0.4,1.6
		c-0.1,0.7-0.2,1.3-0.4,1.9l-3.2,9.1c-0.2,0.6-0.3,1-0.2,1.3c0.1,0.3,0.3,0.5,0.6,0.5c0.4,0,0.7-0.2,1.1-0.6
		c0.3-0.4,0.7-1.1,1.1-2.2l0.5-1.2h0.6l-0.8,2.2c-0.4,1.2-1,2-1.7,2.4c-0.7,0.4-1.4,0.7-2.1,0.7c-0.9,0-1.5-0.2-1.8-0.6
		s-0.5-0.9-0.5-1.6s0.2-1.4,0.5-2.2L140.7,41.7z M141.7,33.8c0.1-0.6,0.4-1.2,0.8-1.6c0.5-0.4,1-0.6,1.6-0.6c0.6,0,1,0.2,1.4,0.6
		c0.3,0.4,0.5,0.8,0.4,1.4c-0.1,0.6-0.4,1.1-0.9,1.5c-0.5,0.4-1,0.6-1.7,0.6c-0.6,0-1-0.2-1.3-0.6C141.7,34.8,141.6,34.4,141.7,33.8
		z"/>
	<path id="XMLID_39_" style="fill:#6B6363;" d="M148.4,47.9c1-0.4,2-0.7,2.8-1.1c0.8-0.4,1.5-0.8,2.1-1.2c0.7-0.6,1.3-1.4,1.8-2.2
		c0.4-0.9,0.6-1.8,0.6-2.8c0-0.5,0-0.9-0.1-1c-0.1-0.1-0.2-0.2-0.4-0.2c-0.6,0-1.2,0.3-2,1c-0.7,0.7-1.4,1.6-2,2.7
		c-0.6,1.1-1.2,2.4-1.6,3.7c-0.4,1.3-0.6,2.7-0.6,4c0,1,0.2,1.8,0.6,2.2c0.4,0.4,0.9,0.7,1.5,0.7c0.7,0,1.4-0.2,2.2-0.6
		c0.8-0.4,1.6-1.1,2.4-2.2l0.5,0.2c-0.4,0.7-0.9,1.3-1.6,1.9c-0.6,0.6-1.4,1.1-2.2,1.5c-0.8,0.4-1.7,0.6-2.6,0.6
		c-1.3,0-2.3-0.4-3-1.1c-0.8-0.7-1.2-1.8-1.2-3.2c0-0.9,0.2-1.9,0.5-3c0.3-1.1,0.8-2.2,1.4-3.2c0.6-1.1,1.3-2,2.2-2.9
		c0.8-0.9,1.8-1.6,2.8-2.1c1-0.5,2.1-0.8,3.3-0.8c0.7,0,1.3,0.2,1.8,0.5s0.7,0.9,0.7,1.6c0,0.8-0.2,1.5-0.7,2.2
		c-0.4,0.7-1.1,1.3-1.8,1.9c-0.8,0.6-1.6,1.1-2.5,1.5c-0.9,0.4-1.8,0.8-2.7,1.1c-0.9,0.3-1.7,0.6-2.4,0.8L148.4,47.9z"/>
</g>
<g id="XMLID_5_">
	<path id="XMLID_6_" style="fill:#451E10;" d="M101.3,77.8c1.5,0,2.8,0.4,4.1,1c1.3,0.7,2.1,1.9,2.6,3.6l-0.6,0.5
		c-0.5-1.4-1.2-2.4-2.2-3c-1-0.6-2.1-1-3.5-1c-2,0-3.6,1-4.9,3c-1.3,2-2,5.2-1.9,9.4c0,2.7,0.3,4.9,0.8,6.7c0.5,1.8,1.3,3.1,2.3,4
		c1,0.9,2.3,1.3,3.7,1.3c1.4,0,2.7-0.6,3.8-1.8c1.1-1.2,1.8-3,2-5.3l0.6,0.7c-0.3,2.5-1.1,4.5-2.4,5.9c-1.4,1.4-3.2,2-5.5,2
		c-2.1,0-3.9-0.5-5.4-1.5c-1.5-1-2.7-2.5-3.5-4.5c-0.8-2-1.2-4.5-1.2-7.5s0.5-5.6,1.6-7.6c1-2,2.4-3.5,4.1-4.5
		C97.5,78.3,99.3,77.8,101.3,77.8z M111.8,65v33.8c0,1.5,0.3,2.6,0.8,3.3c0.6,0.7,1.5,1.1,3,1.1v1c-1-0.1-2.1-0.2-3.1-0.2
		c-1,0-1.9,0.1-2.8,0.2c-0.9,0.1-1.7,0.3-2.4,0.5V71c0-1.5-0.3-2.6-0.8-3.3c-0.5-0.7-1.5-1.1-3-1.1v-1c1.1,0.1,2.1,0.2,3.1,0.2
		c1,0,1.9-0.1,2.8-0.2C110.3,65.4,111.1,65.2,111.8,65z"/>
	<path id="XMLID_9_" style="fill:#451E10;" d="M130.3,77.8c2.9,0,5.2,0.9,6.9,2.7c1.6,1.8,2.5,4.6,2.5,8.3H122l0-1h12.9
		c0.1-1.6-0.1-3.1-0.4-4.5c-0.3-1.4-0.9-2.5-1.6-3.3c-0.7-0.8-1.6-1.3-2.8-1.3c-1.5,0-2.9,0.8-4.1,2.3c-1.2,1.5-1.9,4-2.1,7.3
		l0.1,0.2c-0.1,0.5-0.1,1-0.1,1.7c0,0.6-0.1,1.2-0.1,1.8c0,2.3,0.4,4.2,1.1,5.8c0.7,1.6,1.7,2.9,2.9,3.7c1.2,0.8,2.4,1.3,3.7,1.3
		c1.5,0,2.9-0.4,4.2-1.1c1.3-0.7,2.3-2,3.2-3.9l1,0.4c-0.4,1.1-1,2.2-1.8,3.2c-0.8,1-1.9,1.9-3.1,2.5c-1.3,0.7-2.7,1-4.4,1
		c-2.4,0-4.5-0.5-6.2-1.7c-1.7-1.1-3-2.6-4-4.6c-0.9-1.9-1.4-4.2-1.4-6.7c0-2.9,0.5-5.5,1.4-7.6c0.9-2.1,2.3-3.8,3.9-4.9
		C126,78.3,128,77.8,130.3,77.8z"/>
	<path id="XMLID_11_" style="fill:#451E10;" d="M151.5,70.2v8.3h7.4v1h-7.4v19.4c0,1.6,0.3,2.7,0.9,3.3c0.6,0.6,1.4,1,2.4,1
		s1.9-0.4,2.6-1.2c0.7-0.8,1.4-2.2,1.9-4.1l1,0.3c-0.3,1.9-1,3.6-2,4.9c-1,1.3-2.5,2-4.5,2c-1.1,0-2.1-0.1-2.8-0.4
		c-0.7-0.3-1.4-0.7-1.9-1.2c-0.7-0.8-1.2-1.7-1.5-2.8c-0.3-1.1-0.4-2.5-0.4-4.3V79.5h-4.8v-1h4.8v-7.7c0.8,0,1.6-0.1,2.4-0.2
		C150.1,70.5,150.8,70.4,151.5,70.2z"/>
	<path id="XMLID_13_" style="fill:#451E10;" d="M167.2,70.2v8.3h7.4v1h-7.4v19.4c0,1.6,0.3,2.7,0.9,3.3c0.6,0.6,1.4,1,2.4,1
		s1.9-0.4,2.6-1.2c0.7-0.8,1.4-2.2,1.9-4.1l1,0.3c-0.3,1.9-1,3.6-2,4.9c-1,1.3-2.5,2-4.5,2c-1.1,0-2.1-0.1-2.8-0.4
		c-0.7-0.3-1.4-0.7-1.9-1.2c-0.7-0.8-1.2-1.7-1.5-2.8c-0.3-1.1-0.4-2.5-0.4-4.3V79.5h-4.8v-1h4.8v-7.7c0.8,0,1.6-0.1,2.4-0.2
		C165.8,70.5,166.5,70.4,167.2,70.2z"/>
	<path id="XMLID_16_" style="fill:#451E10;" d="M189,77.8c2.9,0,5.2,0.9,6.9,2.7c1.7,1.8,2.5,4.6,2.5,8.3h-17.7l0-1h12.9
		c0.1-1.6-0.1-3.1-0.4-4.5c-0.3-1.4-0.9-2.5-1.6-3.3c-0.7-0.8-1.6-1.3-2.8-1.3c-1.5,0-2.9,0.8-4.1,2.3c-1.2,1.5-1.9,4-2.1,7.3
		l0.1,0.2c-0.1,0.5-0.1,1-0.1,1.7c0,0.6-0.1,1.2-0.1,1.8c0,2.3,0.4,4.2,1.1,5.8c0.7,1.6,1.7,2.9,2.9,3.7c1.2,0.8,2.4,1.3,3.7,1.3
		c1.5,0,2.9-0.4,4.2-1.1c1.3-0.7,2.3-2,3.2-3.9l1,0.4c-0.4,1.1-1,2.2-1.8,3.2s-1.9,1.9-3.1,2.5c-1.3,0.7-2.7,1-4.4,1
		c-2.4,0-4.5-0.5-6.2-1.7c-1.7-1.1-3-2.6-4-4.6c-0.9-1.9-1.4-4.2-1.4-6.7c0-2.9,0.5-5.5,1.4-7.6c0.9-2.1,2.3-3.8,3.9-4.9
		C184.7,78.3,186.7,77.8,189,77.8z"/>
</g>
<g id="XMLID_1_">
	<g id="XMLID_64_">
		<path id="XMLID_65_" style="fill:#451E10;" d="M49.8,13.1c8.5,0,16,1.9,22.4,5.6c6.5,3.7,11.5,9.1,15,16.1
			c3.6,7,5.3,15.4,5.3,25.4c0,9.7-1.8,18.2-5.5,25.5s-8.7,13-15.2,17c-6.5,4.1-13.9,6.1-22.2,6.1c-8.6,0-16.1-1.9-22.5-5.6
			c-6.4-3.7-11.4-9.1-14.9-16.1c-3.6-7-5.3-15.5-5.3-25.3c0-9.7,1.8-18.2,5.5-25.5c3.7-7.3,8.7-13,15.1-17
			C34,15.1,41.4,13.1,49.8,13.1z M49.3,15.4c-5.4,0-10.1,2-14,5.9c-4,3.9-7.1,9.3-9.2,16.1c-2.2,6.8-3.3,14.8-3.3,23.8
			c0,9.2,1.2,17.2,3.6,24c2.4,6.8,5.7,12,9.9,15.7c4.2,3.7,8.8,5.5,13.9,5.5c5.4,0,10-2,14-5.9c3.9-3.9,7-9.3,9.2-16.2
			c2.2-6.9,3.3-14.8,3.3-23.7c0-9.3-1.2-17.3-3.7-24s-5.8-12-9.9-15.7C59,17.3,54.4,15.4,49.3,15.4z"/>
	</g>
</g>
<polygon id="XMLID_55_" style="fill:#DEBF7C;" points="117,25 137.5,8 95.5,8 "/>
</svg>
