<?xml version="1.0" encoding="utf-8"?>
<!-- Generator: Adobe Illustrator 19.0.0, SVG Export Plug-In . SVG Version: 6.00 Build 0)  -->
<svg version="1.1" id="Calque_1" xmlns="http://www.w3.org/2000/svg" xmlns:xlink="http://www.w3.org/1999/xlink" x="0px" y="0px"
	 viewBox="0 0 260 290.5" style="enable-background:new 0 0 260 290.5;" xml:space="preserve">
<style type="text/css">
	.st0{fill:#FCF5BE;}
	.st1{fill:#FCF5BE;stroke:#000000;stroke-width:6;stroke-miterlimit:10;}
	.st2{fill:#FFFFFF;stroke:#000000;stroke-width:6;stroke-miterlimit:10;}
</style>
<path id="XMLID_41_" class="st0" d="M229.3,113.5H210V78.6c0-13.5-5-18.1-17.8-18.1H62c-12.8,0-28,4.5-28,18.1v180.9
	c0,13.5,15.2,31,28,31h130.3c12.8,0,17.8-17.5,17.8-31v-8h19.3c18.7,0,28.7-22.9,28.7-42.6v-65.7C258,123.4,248,113.5,229.3,113.5z
	 M230,208.9c0,3.2,2.4,12.6-0.7,12.6H210v-78h19.3c3,0,0.7-3.5,0.7-0.3V208.9z"/>
<path id="XMLID_47_" class="st1" d="M222.7,99.5H206V67.9c0-13.5-7.7-21.4-20.4-21.4H55.3C42.5,46.5,30,54.4,30,67.9v180.9
	c0,13.5,12.5,27.7,25.3,27.7h130.3c12.8,0,20.4-14.2,20.4-27.7v-11.3h16.7c18.7,0,31.3-19.5,31.3-39.3v-65.7
	C254,112.8,241.3,99.5,222.7,99.5z M226,198.2c0,3.2-0.3,9.3-3.3,9.3H206v-78h16.7c3,0,3.3-0.2,3.3,3V198.2z"/>
<path id="XMLID_55_" class="st2" d="M186.9,23.2c-8,0-15.3,2.8-21,7.5c-4.6-2.1-9.8-3.3-15.2-3.3c-7.9,0-15.3,2.5-21.3,6.7
	c-5-16.6-20.3-28.7-38.5-28.7c-21.4,0-38.9,16.7-40.2,37.9c-3.4-1.3-7-2-10.9-2c-16.7,0-30.2,13.5-30.2,30.2s13.5,30.2,30.2,30.2
	c13.9,0,25.6-9.4,29.1-22.2c6.3,4.1,13.8,6.5,21.9,6.5c9.4,0,18.1-3.2,24.9-8.7c5.2,14.3,18.9,24.4,34.9,24.4
	c11.2,0,21.3-5,28.1-12.9c2.6,0.6,5.3,1,8.1,1c18.4,0,33.3-14.9,33.3-33.3S205.3,23.2,186.9,23.2z"/>
</svg>
