<?xml version="1.0" encoding="utf-8"?>
<!-- Generator: Adobe Illustrator 19.0.0, SVG Export Plug-In . SVG Version: 6.00 Build 0)  -->
<svg version="1.1" id="Calque_1" xmlns="http://www.w3.org/2000/svg" xmlns:xlink="http://www.w3.org/1999/xlink" x="0px" y="0px"
	 viewBox="0 0 268.1 250" style="enable-background:new 0 0 268.1 250;" xml:space="preserve">
<g id="XMLID_1_">
	<path id="XMLID_42_" style="fill:#FF8E4E;" d="M36.9,196.5h212.5c7,0,12.8-5.7,12.8-12.8v-14.5c0-7-5.7-12.8-12.8-12.8H36.9
		c-7,0-12.8,5.7-12.8,12.8v14.5C24.1,190.8,29.9,196.5,36.9,196.5z"/>
	<path id="XMLID_43_" style="fill:#A9DEF9;" d="M34.4,148.5h217.5c5.7,0,10.3-4.6,10.3-10.3v-11c0-5.7-4.6-10.3-10.3-10.3H34.4
		c-5.7,0-10.3,4.6-10.3,10.3v11C24.1,143.9,28.7,148.5,34.4,148.5z"/>
	<path id="XMLID_45_" style="fill:#FF8E4E;" d="M262.1,86.4c0-17-53.3-30.7-119-30.7s-119,13.7-119,30.7v3.6
		c0,9.5,7.7,17.1,17.1,17.1h203.5c9.4,0,17.1-7.6,17.1-17L262.1,86.4C262.1,86.3,262.1,86.5,262.1,86.4z"/>
</g>
<g id="XMLID_3_">
	<path id="XMLID_6_" style="fill:#FF8E4E;stroke:#384B51;stroke-width:6;stroke-miterlimit:10;" d="M27.9,183.5h212.5
		c7,0,12.8-5.7,12.8-12.8v-22.5c0-7-5.7-12.8-12.8-12.8H27.9c-7,0-12.8,5.7-12.8,12.8v22.5C15.2,177.8,20.9,183.5,27.9,183.5z"/>
	<path id="XMLID_5_" style="fill:#A9DEF9;stroke:#384B51;stroke-width:6;stroke-miterlimit:10;" d="M25.4,135.5h217.5
		c5.7,0,10.3-4.6,10.3-10.3v-11c0-5.7-4.6-10.3-10.3-10.3H25.4c-5.7,0-10.3,4.6-10.3,10.3v11C15.2,130.9,19.8,135.5,25.4,135.5z"/>
	<path id="XMLID_4_" style="fill:#FF8E4E;stroke:#384B51;stroke-width:6;stroke-miterlimit:10;" d="M253.2,79.3
		c0-20.2-53.3-36.5-119-36.5s-119,16.4-119,36.5v4.3c0,11.3,7.7,20.4,17.1,20.4h203.5c9.4,0,17.1-9,17.1-20.2L253.2,79.3
		C253.2,79.2,253.2,79.4,253.2,79.3z"/>
</g>
</svg>
