<?xml version="1.0" encoding="utf-8"?>
<!-- Generator: Adobe Illustrator 19.0.0, SVG Export Plug-In . SVG Version: 6.00 Build 0)  -->
<svg version="1.1" id="Calque_1" xmlns="http://www.w3.org/2000/svg" xmlns:xlink="http://www.w3.org/1999/xlink" x="0px" y="0px"
	 viewBox="0 0 325.1 440.9" enable-background="new 0 0 325.1 440.9" xml:space="preserve">
<g id="XMLID_3_">
	<path id="XMLID_63_" fill="#FF8E4E" d="M162.3,432.9C75.6,432.9,5,362.3,5,275.6c0-86.7,70.6-157.3,157.3-157.3
		c86.7,0,157.3,70.6,157.3,157.3C319.6,362.3,249,432.9,162.3,432.9z"/>
	<path id="XMLID_60_" fill="#384B51" d="M162.3,123.3c40.7,0,78.9,15.8,107.7,44.6c28.8,28.8,44.6,67,44.6,107.7
		s-15.8,78.9-44.6,107.7s-67,44.6-107.7,44.6s-78.9-15.8-107.7-44.6S10,316.3,10,275.6s15.8-78.9,44.6-107.7
		C83.4,139.2,121.6,123.3,162.3,123.3 M162.3,113.3C72.7,113.3,0,186,0,275.6s72.7,162.3,162.3,162.3s162.3-72.7,162.3-162.3
		S251.9,113.3,162.3,113.3L162.3,113.3z"/>
</g>
<g id="XMLID_2_">
	<path id="XMLID_29_" fill="#FF8E4E" d="M102.3,97.3c-7.1,0-11.5-4.6-13.2-8.9s-1.9-10.6,3.1-15.6l60.3-60.3
		c2.7-2.7,6.3-4.2,10.1-4.2c3.8,0,7.4,1.5,10.1,4.2L233,72.8c5,5,4.9,11.3,3.1,15.6s-6.2,8.9-13.2,8.9H102.3z"/>
	<g id="XMLID_25_">
		<path id="XMLID_26_" fill="#384B51" d="M162.5,13.3c2.5,0,4.8,1,6.6,2.7l60.3,60.3c4.1,4.1,2.6,8.8,2,10.2
			c-0.6,1.4-2.8,5.8-8.6,5.8H102.3c-5.8,0-8.1-4.4-8.6-5.8s-2.1-6.1,2-10.2l60.3-60.3C157.7,14.3,160,13.3,162.5,13.3 M162.5,3.3
			c-4.9,0-9.9,1.9-13.7,5.7L88.6,69.3c-12.2,12.2-3.6,33,13.7,33h120.6c17.2,0,25.9-20.8,13.7-33L176.2,9
			C172.4,5.2,167.5,3.3,162.5,3.3L162.5,3.3z"/>
	</g>
</g>
</svg>
