<?xml version="1.0" encoding="utf-8"?>
<!-- Generator: Adobe Illustrator 19.0.0, SVG Export Plug-In . SVG Version: 6.00 Build 0)  -->
<svg version="1.1" id="Calque_1" xmlns="http://www.w3.org/2000/svg" xmlns:xlink="http://www.w3.org/1999/xlink" x="0px" y="0px"
	 viewBox="0 0 472.2 344.9" enable-background="new 0 0 472.2 344.9" xml:space="preserve">
<rect id="XMLID_11_" x="4.8" y="279.5" fill="#384B51" stroke="#E4C1F9" stroke-width="10" stroke-linejoin="round" stroke-miterlimit="10" width="462.9" height="55.5"/>
<rect id="XMLID_15_" x="127.5" y="311.7" fill="#384B51" stroke="#E4C1F9" stroke-width="10" stroke-linejoin="round" stroke-miterlimit="10" width="217.5" height="28.5"/>
<rect id="XMLID_18_" x="45.7" y="94.9" fill="#384B51" stroke="#E4C1F9" stroke-width="10" stroke-linejoin="round" stroke-miterlimit="10" width="52.4" height="184.6"/>
<path id="XMLID_55_" fill="#384B51" stroke="#E4C1F9" stroke-width="10" stroke-linejoin="round" stroke-miterlimit="10" d="
	M449,94.9C395,39.9,319.8,6.2,236.8,6.2S78.6,39.9,24.5,94.9H449z"/>
<g id="XMLID_16_">
	<path id="XMLID_54_" fill="#E4C1F9" stroke="#E4C1F9" stroke-width="10" stroke-linejoin="round" stroke-miterlimit="10" d="
		M375.5,123.9c-35.4-36-84.5-58-138.7-58s-103.4,22-138.7,58H375.5z"/>
	
		<rect id="XMLID_17_" x="98" y="94.9" fill="#E4C1F9" stroke="#E4C1F9" stroke-width="10" stroke-linejoin="round" stroke-miterlimit="10" width="277.5" height="184.6"/>
</g>
<polyline id="XMLID_57_" fill="#384B51" stroke="#E4C1F9" stroke-width="10" stroke-linejoin="round" stroke-miterlimit="10" points="
	45.7,95.6 96.7,157.7 45.8,219.7 95.9,278.9 "/>
<rect id="XMLID_58_" x="378.7" y="94.9" fill="#384B51" stroke="#E4C1F9" stroke-width="10" stroke-linejoin="round" stroke-miterlimit="10" width="52.4" height="184.6"/>
<polyline id="XMLID_53_" fill="#384B51" stroke="#E4C1F9" stroke-width="10" stroke-linejoin="round" stroke-miterlimit="10" points="
	431,95.6 380,157.7 430.9,219.7 380.8,278.9 "/>
<line id="XMLID_63_" fill="#E4C1F9" stroke="#384B51" stroke-width="17" stroke-linejoin="round" stroke-miterlimit="10" x1="110.2" y1="99.9" x2="110.2" y2="273.9"/>
<line id="XMLID_65_" fill="#E4C1F9" stroke="#384B51" stroke-width="17" stroke-linejoin="round" stroke-miterlimit="10" x1="366.2" y1="99.9" x2="366.2" y2="273.9"/>
</svg>
