<?xml version="1.0" encoding="utf-8"?>
<!-- Generator: Adobe Illustrator 19.0.0, SVG Export Plug-In . SVG Version: 6.00 Build 0)  -->
<svg version="1.1" id="Calque_1" xmlns="http://www.w3.org/2000/svg" xmlns:xlink="http://www.w3.org/1999/xlink" x="0px" y="0px"
	 viewBox="0 0 260 191.2" style="enable-background:new 0 0 260 191.2;" xml:space="preserve">
<g id="XMLID_3_">
	<path id="XMLID_44_" style="fill:#384B51;" d="M76.9,40.8h12.5l7.9,23l8-23h12.4l-11.9,31.5l8.8,22.1l19.6-53.8h14.7l-27.7,69.3
		h-11.6L97.3,80.8l-12.1,29.1H73.5L45.9,40.6h14.5l19.7,53.8l8.6-22.1L76.9,40.8z"/>
	<path id="XMLID_46_" style="fill:#384B51;" d="M149.1,74.7c0-4.2,0.8-8.4,2.3-12.5c1.5-4.1,3.8-7.8,6.7-11.1c2.9-3.4,6.5-6,10.7-8
		c4.2-2,9-3,14.5-3c6.4,0,11.9,1.4,16.6,4.2c4.7,2.8,8.1,6.4,10.4,10.9l-10.4,7.1c-1.2-2.6-2.7-4.7-4.6-6.2
		c-1.9-1.5-3.9-2.6-6.1-3.2c-2.1-0.6-4.3-0.9-6.3-0.9c-3.4,0-6.3,0.7-8.8,2.1c-2.5,1.4-4.6,3.2-6.3,5.4c-1.7,2.2-2.9,4.7-3.8,7.4
		c-0.8,2.7-1.2,5.5-1.2,8.2c0,3.1,0.5,6,1.5,8.8c1,2.8,2.4,5.3,4.2,7.5c1.8,2.2,3.9,3.9,6.4,5.2c2.5,1.3,5.3,1.9,8.3,1.9
		c2.1,0,4.3-0.4,6.5-1.1c2.2-0.7,4.3-1.9,6.2-3.4c1.9-1.6,3.4-3.6,4.4-6.1l11,6.3c-1.4,3.5-3.6,6.4-6.7,8.8
		c-3.1,2.4-6.6,4.2-10.4,5.5c-3.8,1.2-7.7,1.9-11.4,1.9c-4.9,0-9.5-1-13.6-3.1c-4.1-2.1-7.6-4.8-10.6-8.2c-3-3.4-5.3-7.3-6.9-11.5
		C150,83.4,149.1,79,149.1,74.7z"/>
</g>
<polygon id="XMLID_4_" style="fill:#384B51;" points="175.3,128.3 130,173.6 84.7,128.3 "/>
</svg>
